<svg xmlns="http://www.w3.org/2000/svg" xmlns:xlink="http://www.w3.org/1999/xlink" version="1.1" id="Layer_1" x="0px" y="0px" width="100px" height="100px" viewBox="0 0 100 100" enable-background="new 0 0 100 100" xml:space="preserve">
<g>
	<path fill-rule="evenodd" clip-rule="evenodd" d="M47.85,15.397c4.561-0.436,8.837,1.916,11.064,4.542   c2.605,3.072,4.536,8.469,3.081,14.08c-1.492,5.755-6.507,10.413-12.745,10.598c-8.125,0.24-14.005-6.404-14.005-14.685   c0-4.004,1.692-7.708,3.641-9.992C40.871,17.615,44.106,15.755,47.85,15.397z"/>
	<path fill-rule="evenodd" clip-rule="evenodd" d="M35.805,45.07c3.744,12.305,7.366,24.738,11.205,36.939   c-3.635,0.283-6.428,0.152-9.104,0.152c-3.195,0-8.389,0.705-11.064-0.605c-5.32-2.607-4.202-9.381-4.202-17.865   c0-5.014-0.678-10.984,0.7-14.231C25.132,45.239,29.769,44.549,35.805,45.07z"/>
	<path fill-rule="evenodd" clip-rule="evenodd" d="M61.995,45.07c6.218-0.547,11.259,0.205,12.745,5.298   c0.951,3.266,0.42,8.795,0.42,13.323c0,8.998,0.885,17.342-6.022,18.471c-5.777,0.943-12.04-0.818-18.347,0.15   C54.433,69.799,58.207,57.428,61.995,45.07z M59.334,69.293c0.51,1.061,3.959,0.605,5.882,0.605c2.226,0,5.638,0.566,5.322-1.361   c-0.202-1.234-3.104-0.91-4.762-0.91c-2.048,0-4.799-0.289-5.742,0.152C59.492,68.033,58.94,68.475,59.334,69.293z"/>
	<path fill-rule="evenodd" clip-rule="evenodd" d="M55.553,52.943c-2.236,7.271-4.51,14.504-6.583,21.951   c-2.432-7.061-4.394-14.629-6.723-21.801c2.018-2.259,4.487-4.032,6.583-6.207C51.096,48.878,53.281,50.958,55.553,52.943z"/>
</g>
</svg>